<svg width="335" height="134" viewBox="0 0 335 134" fill="none" xmlns="http://www.w3.org/2000/svg">
<path d="M34.2265 70.4862H32.4862V60.2818H34.2265V70.4862ZM22.7238 64.7348C22.7238 64.0608 22.8895 63.4567 23.221 62.9227C23.5562 62.3849 24.0129 61.965 24.5912 61.663C25.1731 61.361 25.8195 61.2099 26.5304 61.2099C27.2413 61.2099 27.8858 61.361 28.4641 61.663C29.0424 61.965 29.4972 62.3849 29.8287 62.9227C30.1639 63.4567 30.3315 64.0608 30.3315 64.7348C30.3315 65.4199 30.1639 66.0313 29.8287 66.5691C29.4972 67.1068 29.0424 67.5267 28.4641 67.8287C27.8858 68.1271 27.2413 68.2762 26.5304 68.2762C25.8195 68.2762 25.1731 68.1271 24.5912 67.8287C24.0129 67.5267 23.5562 67.1068 23.221 66.5691C22.8895 66.0276 22.7238 65.4162 22.7238 64.7348ZM24.4199 64.7348C24.4199 65.1436 24.5101 65.5009 24.6906 65.8066C24.8711 66.1123 25.1215 66.3481 25.442 66.5138C25.7624 66.6796 26.1252 66.7624 26.5304 66.7624C26.9245 66.7624 27.2799 66.6796 27.5967 66.5138C27.9134 66.3481 28.1639 66.1123 28.3481 65.8066C28.5322 65.5009 28.6243 65.1436 28.6243 64.7348C28.6243 64.337 28.5322 63.9853 28.3481 63.6796C28.1639 63.3738 27.9116 63.1381 27.5912 62.9724C27.2744 62.8066 26.9208 62.7238 26.5304 62.7238C26.1289 62.7238 25.7661 62.8066 25.442 62.9724C25.1215 63.1381 24.8711 63.3738 24.6906 63.6796C24.5101 63.9853 24.4199 64.337 24.4199 64.7348ZM24.884 69.4475H26.6354V72.7072H34.6243V74.116H24.884V69.4475ZM47.7678 74.3812H46.0164V60.2707H47.7678V74.3812ZM36.0717 70.4972C37.2945 69.9153 38.3092 69.2615 39.1159 68.5359C39.9262 67.8066 40.5486 66.9982 40.9833 66.1105C41.4179 65.2192 41.6868 64.2302 41.7899 63.1436H36.7899V61.768H43.5578C43.5542 63.2376 43.3405 64.5893 42.917 65.8232C42.4971 67.0534 41.8009 68.1823 40.8286 69.2099C39.8599 70.2376 38.5781 71.1308 36.9833 71.8895L36.0717 70.4972ZM58.2998 63.663C58.2961 64.5285 58.4397 65.3738 58.7307 66.1989C59.0254 67.0203 59.4489 67.7514 60.0014 68.3923C60.5539 69.0295 61.2022 69.5083 61.9462 69.8287L60.913 71.221C60.1174 70.8527 59.4231 70.3149 58.8301 69.6077C58.2408 68.8969 57.7786 68.07 57.4434 67.1271C57.1156 68.1473 56.6478 69.0424 56.0401 69.8122C55.4324 70.5783 54.7104 71.1565 53.8743 71.547L52.8136 70.0994C53.576 69.768 54.2371 69.2707 54.797 68.6077C55.3605 67.9448 55.7915 67.1842 56.0898 66.326C56.3882 65.4641 56.5392 64.5764 56.5429 63.663V61.4033H58.2998V63.663ZM62.9627 60.2707H64.7141V74.4144H62.9627V60.2707ZM77.6145 64.3315H79.5869V65.7735H77.6145V70.453H75.8521V60.2707H77.6145V64.3315ZM66.4156 67.6133C67.4874 67.3039 68.4138 66.9079 69.1946 66.4254C69.9755 65.9392 70.5906 65.3867 71.0399 64.768C71.493 64.1492 71.7692 63.4807 71.8687 62.7624H67.0178V61.337H73.7747C73.7747 62.5783 73.5132 63.7017 72.9902 64.7072C72.4672 65.709 71.7103 66.5727 70.7195 67.2983C69.7324 68.0203 68.5408 68.5856 67.1449 68.9945L66.4156 67.6133ZM68.5427 69.4144H70.2941V72.7072H78.1449V74.116H68.5427V69.4144ZM92.1282 74.3812H90.4818V67.1934H88.8906V73.6796H87.2939V60.5359H88.8906V65.7901H90.4818V60.2707H92.1282V74.3812ZM80.4155 61.9392H85.6917V63.337H82.1558V69.6243C82.9808 69.6169 83.723 69.5875 84.3823 69.5359C85.0416 69.4843 85.712 69.3923 86.3934 69.2597L86.5315 70.6851C85.7396 70.8435 84.9606 70.9484 84.1945 71C83.432 71.0516 82.4928 71.081 81.3768 71.0884H80.4155V61.9392ZM104.929 65.6354H95.139V60.779H96.8683V64.2597H104.929V65.6354ZM93.4705 67.2818H106.382V68.6519H93.4705V67.2818ZM95.023 69.9006H96.7578V72.6519H105.018V74.0608H95.023V69.9006ZM122.599 74.3812H120.925V67.1381H119.406V73.7293H117.787V60.6464H119.406V65.7293H120.925V60.2707H122.599V74.3812ZM110.362 70.2265C111.82 69.3904 112.907 68.4162 113.621 67.3039C114.34 66.1915 114.763 64.9061 114.892 63.4475H111.014V62.0387H116.588C116.584 63.3867 116.419 64.6243 116.091 65.7514C115.767 66.8785 115.22 67.9227 114.45 68.884C113.684 69.8453 112.656 70.6961 111.367 71.4365L110.362 70.2265ZM129.047 62.8177C129.047 63.4033 129.172 63.9613 129.422 64.4917C129.673 65.0184 130.047 65.488 130.544 65.9006C131.045 66.3094 131.652 66.6225 132.367 66.8398L131.544 68.2044C130.767 67.9613 130.096 67.6022 129.533 67.1271C128.973 66.6483 128.533 66.0829 128.212 65.4309C127.892 66.1897 127.435 66.8471 126.842 67.4033C126.249 67.9558 125.536 68.372 124.704 68.6519L123.82 67.2762C124.557 67.0368 125.187 66.6888 125.71 66.232C126.233 65.7753 126.627 65.2541 126.892 64.6685C127.161 64.0792 127.297 63.4659 127.301 62.8287V62.6519H124.306V61.2486H131.975V62.6519H129.047V62.8177ZM125.748 71.674C125.748 71.1179 125.94 70.639 126.323 70.2376C126.706 69.8361 127.256 69.5304 127.975 69.3204C128.693 69.1068 129.544 69 130.527 69C131.5 69 132.339 69.1068 133.047 69.3204C133.757 69.5304 134.303 69.8361 134.682 70.2376C135.061 70.6354 135.251 71.1142 135.251 71.674C135.251 72.2376 135.061 72.7219 134.682 73.1271C134.303 73.5322 133.757 73.8398 133.047 74.0497C132.339 74.2634 131.5 74.3702 130.527 74.3702C129.547 74.3702 128.697 74.2634 127.975 74.0497C127.256 73.8398 126.706 73.5322 126.323 73.1271C125.94 72.7219 125.748 72.2376 125.748 71.674ZM127.483 71.674C127.479 72.105 127.739 72.4346 128.262 72.663C128.785 72.8913 129.529 73.0055 130.494 73.0055C131.477 73.0055 132.231 72.8932 132.754 72.6685C133.28 72.4401 133.544 72.1087 133.544 71.674C133.544 71.2468 133.284 70.9227 132.765 70.7017C132.245 70.477 131.5 70.3646 130.527 70.3646C129.551 70.3646 128.798 70.477 128.268 70.7017C127.741 70.9263 127.479 71.2505 127.483 71.674ZM133.378 60.2707H135.124V63.6575H137.096V65.0829H135.124V68.6906H133.378V60.2707ZM141.494 60.7182C142.201 60.7182 142.838 60.8564 143.405 61.1326C143.973 61.4052 144.418 61.7845 144.743 62.2707C145.067 62.7532 145.229 63.3002 145.229 63.9116C145.229 64.523 145.067 65.07 144.743 65.5525C144.418 66.035 143.973 66.4125 143.405 66.6851C142.838 66.9576 142.201 67.0939 141.494 67.0939C140.779 67.0939 140.137 66.9576 139.566 66.6851C138.995 66.4125 138.547 66.035 138.223 65.5525C137.903 65.07 137.743 64.523 137.743 63.9116C137.743 63.3002 137.903 62.7532 138.223 62.2707C138.547 61.7845 138.995 61.4052 139.566 61.1326C140.14 60.8564 140.783 60.7182 141.494 60.7182ZM139.433 63.9116C139.429 64.2689 139.516 64.582 139.693 64.8508C139.87 65.116 140.115 65.3223 140.428 65.4696C140.741 65.6133 141.096 65.6851 141.494 65.6851C141.888 65.6851 142.24 65.6133 142.549 65.4696C142.862 65.3223 143.105 65.116 143.278 64.8508C143.455 64.582 143.544 64.2689 143.544 63.9116C143.544 63.558 143.455 63.2486 143.278 62.9834C143.102 62.7182 142.859 62.5138 142.549 62.3702C142.24 62.2265 141.888 62.1547 141.494 62.1547C141.096 62.1547 140.741 62.2265 140.428 62.3702C140.115 62.5138 139.87 62.7182 139.693 62.9834C139.516 63.2486 139.429 63.558 139.433 63.9116ZM139.87 68.0166H149.245V71.7072H141.604V72.8398H149.671V74.2155H139.914V70.4254H147.516V69.3702H139.87V68.0166ZM147.505 60.2707H149.245V67.3978H147.505V60.2707ZM166.225 74.4144H164.473V60.2707H166.225V74.4144ZM154.926 66.2818C154.926 65.2836 155.083 64.4088 155.396 63.6575C155.713 62.9024 156.149 62.3204 156.705 61.9116C157.265 61.4991 157.902 61.2928 158.617 61.2928C159.321 61.2928 159.95 61.4991 160.507 61.9116C161.066 62.3204 161.503 62.9024 161.816 63.6575C162.133 64.4088 162.291 65.2836 162.291 66.2818C162.291 67.2873 162.133 68.1694 161.816 68.9282C161.503 69.6832 161.066 70.2652 160.507 70.674C159.95 71.0792 159.321 71.2818 158.617 71.2818C157.902 71.2818 157.265 71.0792 156.705 70.674C156.146 70.2652 155.709 69.6832 155.396 68.9282C155.083 68.1694 154.926 67.2873 154.926 66.2818ZM156.6 66.2818C156.6 66.9926 156.683 67.6077 156.849 68.1271C157.018 68.6427 157.254 69.0368 157.556 69.3094C157.862 69.5783 158.216 69.7127 158.617 69.7127C159.011 69.7127 159.357 69.5764 159.656 69.3039C159.958 69.0313 160.192 68.6372 160.357 68.1215C160.527 67.6059 160.611 66.9926 160.611 66.2818C160.611 65.5746 160.527 64.965 160.357 64.453C160.192 63.9374 159.958 63.5433 159.656 63.2707C159.357 62.9982 159.011 62.8619 158.617 62.8619C158.216 62.8619 157.862 62.9982 157.556 63.2707C157.254 63.5433 157.018 63.9374 156.849 64.453C156.683 64.965 156.6 65.5746 156.6 66.2818ZM180.153 63.1878H168.617V61.7845H173.545V60.232H175.269V61.7845H180.153V63.1878ZM167.981 69.3978H180.893V70.8122H175.269V74.4033H173.545V70.8122H167.981V69.3978ZM169.628 66.2265C169.624 65.7145 169.812 65.2799 170.191 64.9227C170.571 64.5617 171.118 64.2891 171.832 64.105C172.551 63.9208 173.409 63.8287 174.407 63.8287C175.401 63.8287 176.256 63.9208 176.97 64.105C177.689 64.2891 178.237 64.5617 178.617 64.9227C179 65.2799 179.191 65.7145 179.191 66.2265C179.191 66.7348 179 67.1676 178.617 67.5249C178.237 67.8785 177.689 68.1473 176.97 68.3315C176.256 68.5157 175.401 68.6096 174.407 68.6133C173.409 68.6096 172.551 68.5157 171.832 68.3315C171.118 68.1473 170.571 67.8785 170.191 67.5249C169.812 67.1676 169.624 66.7348 169.628 66.2265ZM171.435 66.2265C171.427 66.5801 171.672 66.849 172.169 67.0331C172.667 67.2173 173.398 67.3094 174.363 67.3094C175.353 67.3094 176.105 67.2192 176.617 67.0387C177.129 66.8545 177.387 66.5838 177.39 66.2265C177.387 65.8619 177.131 65.5875 176.622 65.4033C176.118 65.2155 175.379 65.1215 174.407 65.1215C173.427 65.1215 172.685 65.2155 172.18 65.4033C171.679 65.5875 171.431 65.8619 171.435 66.2265ZM194.385 69.8619H188.749V74.3812H187.031V69.8619H181.473V68.4862H194.385V69.8619ZM183.037 60.8287H184.749V62.5635H191.07V60.8287H192.81V67.011H183.037V60.8287ZM191.07 65.6133V63.9337H184.749V65.6133H191.07ZM206.838 74.4144H205.114V66.7735H202.467V65.3702H205.114V60.2707H206.838V74.4144ZM195.644 61.4917H202.241V62.9006H197.384V65.4365H201.688V66.8122H197.384V69.7238C198.548 69.7164 199.554 69.6869 200.401 69.6354C201.248 69.5801 202.101 69.4807 202.959 69.337L203.141 70.7459C202.162 70.8969 201.189 71 200.224 71.0552C199.259 71.1105 198.101 71.1418 196.749 71.1492H195.644V61.4917ZM223.176 64.3978H225.082V65.8287H223.176V69.8287H221.436V60.2818H223.176V64.3978ZM211.856 68.1381C213.237 68.1381 214.423 68.1252 215.414 68.0994V67.2265C214.891 67.1602 214.436 67.0368 214.049 66.8564C213.666 66.6722 213.371 66.4365 213.165 66.1492C212.959 65.8619 212.858 65.5341 212.861 65.1657C212.858 64.7385 212.996 64.3683 213.276 64.0552C213.559 63.7385 213.957 63.4954 214.469 63.326C214.985 63.1565 215.583 63.0718 216.265 63.0718C216.946 63.0718 217.543 63.1565 218.055 63.326C218.57 63.4954 218.968 63.7385 219.248 64.0552C219.532 64.3683 219.675 64.7385 219.679 65.1657C219.675 65.5304 219.57 65.8564 219.364 66.1436C219.158 66.4273 218.865 66.6611 218.485 66.8453C218.11 67.0295 217.664 67.1547 217.148 67.221V68.0387C218.452 67.9724 219.638 67.8692 220.706 67.7293L220.834 68.9448C219.508 69.1768 218.141 69.3278 216.734 69.3978C215.327 69.4641 213.764 69.4991 212.044 69.5028L211.856 68.1381ZM212.22 61.3978H215.414V60.1602H217.148V61.3978H220.331V62.674H212.22V61.3978ZM213.629 70.4365H223.176V74.3812H221.436V71.7901H213.629V70.4365ZM214.524 65.1657C214.517 65.4604 214.666 65.6924 214.972 65.8619C215.277 66.0313 215.701 66.116 216.242 66.116C216.795 66.116 217.228 66.0331 217.541 65.8674C217.854 65.698 218.01 65.4641 218.01 65.1657C218.01 64.8637 217.858 64.6354 217.552 64.4807C217.246 64.3223 216.817 64.2431 216.265 64.2431C215.708 64.2431 215.277 64.3223 214.972 64.4807C214.67 64.639 214.52 64.8674 214.524 65.1657ZM237.248 70.4862H235.507V60.2818H237.248V70.4862ZM225.745 64.7348C225.745 64.0608 225.911 63.4567 226.242 62.9227C226.577 62.3849 227.034 61.965 227.612 61.663C228.194 61.361 228.841 61.2099 229.552 61.2099C230.263 61.2099 230.907 61.361 231.485 61.663C232.064 61.965 232.518 62.3849 232.85 62.9227C233.185 63.4567 233.353 64.0608 233.353 64.7348C233.353 65.4199 233.185 66.0313 232.85 66.5691C232.518 67.1068 232.064 67.5267 231.485 67.8287C230.907 68.1271 230.263 68.2762 229.552 68.2762C228.841 68.2762 228.194 68.1271 227.612 67.8287C227.034 67.5267 226.577 67.1068 226.242 66.5691C225.911 66.0276 225.745 65.4162 225.745 64.7348ZM227.441 64.7348C227.441 65.1436 227.531 65.5009 227.712 65.8066C227.892 66.1123 228.143 66.3481 228.463 66.5138C228.784 66.6796 229.146 66.7624 229.552 66.7624C229.946 66.7624 230.301 66.6796 230.618 66.5138C230.935 66.3481 231.185 66.1123 231.369 65.8066C231.553 65.5009 231.646 65.1436 231.646 64.7348C231.646 64.337 231.553 63.9853 231.369 63.6796C231.185 63.3738 230.933 63.1381 230.612 62.9724C230.296 62.8066 229.942 62.7238 229.552 62.7238C229.15 62.7238 228.787 62.8066 228.463 62.9724C228.143 63.1381 227.892 63.3738 227.712 63.6796C227.531 63.9853 227.441 64.337 227.441 64.7348ZM227.905 69.4475H229.657V72.7072H237.646V74.116H227.905V69.4475ZM250.143 63.4199H252.126V64.8232H250.143V67.9392H248.397V60.2376H250.143V63.4199ZM239.01 61.3978H242.342V60.1602H244.071V61.3978H247.391V62.7348H239.01V61.3978ZM239.739 65.4862C239.739 65.0221 239.881 64.6169 240.165 64.2707C240.452 63.9208 240.857 63.6519 241.38 63.4641C241.903 63.2726 242.513 63.1768 243.209 63.1768C243.898 63.1768 244.502 63.2726 245.021 63.4641C245.54 63.6519 245.942 63.9208 246.226 64.2707C246.509 64.6169 246.651 65.0221 246.651 65.4862C246.651 65.9613 246.509 66.3738 246.226 66.7238C245.942 67.07 245.54 67.3352 245.021 67.5193C244.505 67.7035 243.901 67.7956 243.209 67.7956C242.513 67.7956 241.901 67.7035 241.375 67.5193C240.852 67.3352 240.448 67.07 240.165 66.7238C239.881 66.3738 239.739 65.9613 239.739 65.4862ZM240.9 68.558H250.143V71.9779H242.634V72.9724H250.585V74.2652H240.922V70.768H248.408V69.8232H240.9V68.558ZM241.424 65.4862C241.421 65.825 241.577 66.0866 241.894 66.2707C242.211 66.4512 242.649 66.5414 243.209 66.5414C243.761 66.5414 244.198 66.4512 244.518 66.2707C244.839 66.0866 245.001 65.825 245.005 65.4862C245.001 65.151 244.837 64.8895 244.513 64.7017C244.192 64.5101 243.758 64.4144 243.209 64.4144C242.841 64.4144 242.522 64.4567 242.253 64.5414C241.984 64.6262 241.778 64.7495 241.634 64.9116C241.491 65.0737 241.421 65.2652 241.424 65.4862ZM263.338 61.442C263.338 62.035 263.548 62.6133 263.967 63.1768C264.387 63.7366 264.977 64.2173 265.735 64.6188C266.498 65.0166 267.365 65.2781 268.338 65.4033L267.652 66.8066C266.861 66.6888 266.126 66.4862 265.448 66.1989C264.77 65.9079 264.174 65.5488 263.658 65.1215C263.146 64.6906 262.737 64.2099 262.432 63.6796C262.122 64.2099 261.71 64.6906 261.194 65.1215C260.682 65.5488 260.089 65.9079 259.415 66.1989C258.741 66.4862 258.012 66.6888 257.227 66.8066L256.536 65.4033C257.505 65.2781 258.367 65.0166 259.122 64.6188C259.881 64.2173 260.468 63.7366 260.885 63.1768C261.304 62.6169 261.514 62.0387 261.514 61.442V60.7182H263.338V61.442ZM255.984 68.0331H268.851V69.4641H263.244V74.3812H261.525V69.4641H255.984V68.0331ZM277.986 69.4586C277.986 70.0773 278.131 70.6685 278.422 71.232C278.717 71.7919 279.155 72.2578 279.737 72.6298C280.131 72.3646 280.463 72.0552 280.731 71.7017C281.004 71.3444 281.207 70.9742 281.339 70.5912C281.472 70.2044 281.538 69.8269 281.538 69.4586V68.8785H283.251V69.4586C283.247 69.9595 283.345 70.4365 283.544 70.8895C283.742 71.3425 284.046 71.7459 284.455 72.0994C284.868 72.4494 285.374 72.7201 285.975 72.9116L285.124 74.1768C284.457 73.9521 283.89 73.6243 283.422 73.1934C282.958 72.7661 282.599 72.2634 282.345 71.6851C282.105 72.2744 281.772 72.7956 281.345 73.2486C280.917 73.7053 280.396 74.0571 279.781 74.3039C279.137 74.0645 278.595 73.7238 278.157 73.2818C277.722 72.8398 277.387 72.3241 277.151 71.7348C276.89 72.2947 276.531 72.7845 276.074 73.2044C275.617 73.6243 275.068 73.9484 274.428 74.1768L273.571 72.9116C274.161 72.7053 274.658 72.4199 275.063 72.0552C275.472 71.6906 275.777 71.2855 275.98 70.8398C276.186 70.3904 276.291 69.93 276.295 69.4586V68.8785H277.986V69.4586ZM273.223 64.3978C273.223 63.7459 273.387 63.1657 273.715 62.6575C274.043 62.1455 274.496 61.7477 275.074 61.4641C275.656 61.1768 276.308 61.0331 277.03 61.0331C277.748 61.0331 278.396 61.1768 278.975 61.4641C279.553 61.7477 280.006 62.1455 280.334 62.6575C280.665 63.1657 280.831 63.7459 280.831 64.3978C280.831 65.0387 280.665 65.6133 280.334 66.1215C280.006 66.6298 279.553 67.0258 278.975 67.3094C278.396 67.593 277.748 67.7348 277.03 67.7348C276.308 67.7348 275.658 67.593 275.079 67.3094C274.501 67.0258 274.046 66.6298 273.715 66.1215C273.387 65.6133 273.223 65.0387 273.223 64.3978ZM274.919 64.3978C274.919 64.7735 275.008 65.105 275.184 65.3923C275.365 65.6796 275.615 65.9024 275.936 66.0608C276.256 66.2155 276.621 66.2928 277.03 66.2928C277.431 66.2928 277.79 66.2155 278.107 66.0608C278.424 65.9024 278.672 65.6796 278.853 65.3923C279.033 65.105 279.124 64.7735 279.124 64.3978C279.124 64.0147 279.033 63.6796 278.853 63.3923C278.676 63.105 278.428 62.884 278.107 62.7293C277.79 62.5746 277.431 62.4972 277.03 62.4972C276.621 62.4972 276.256 62.5746 275.936 62.7293C275.615 62.884 275.365 63.105 275.184 63.3923C275.008 63.6796 274.919 64.0147 274.919 64.3978ZM282.986 60.2818H284.726V68.2818H282.986V60.2818ZM290.333 61.2928C290.967 61.2928 291.54 61.4622 292.052 61.8011C292.564 62.14 292.98 62.6243 293.3 63.2541C293.624 63.8803 293.827 64.6169 293.908 65.4641H296.593V60.2707H298.317V74.4144H296.593V66.8674H293.925C293.866 67.7661 293.676 68.5488 293.356 69.2155C293.035 69.8785 292.613 70.3886 292.09 70.7459C291.571 71.1031 290.985 71.2818 290.333 71.2818C289.63 71.2818 289.002 71.0792 288.449 70.674C287.901 70.2652 287.473 69.6832 287.168 68.9282C286.862 68.1694 286.711 67.2873 286.715 66.2818C286.711 65.2836 286.862 64.4088 287.168 63.6575C287.473 62.9024 287.901 62.3204 288.449 61.9116C289.002 61.4991 289.63 61.2928 290.333 61.2928ZM288.378 66.2818C288.378 66.9926 288.459 67.6059 288.621 68.1215C288.783 68.6372 289.011 69.0313 289.306 69.3039C289.604 69.5764 289.947 69.7127 290.333 69.7127C290.724 69.7127 291.066 69.5783 291.361 69.3094C291.659 69.0368 291.89 68.6427 292.052 68.1271C292.217 67.6077 292.3 66.9926 292.3 66.2818C292.3 65.5746 292.217 64.965 292.052 64.453C291.89 63.9374 291.659 63.5433 291.361 63.2707C291.066 62.9982 290.724 62.8619 290.333 62.8619C289.947 62.8619 289.604 62.9982 289.306 63.2707C289.011 63.5433 288.783 63.9374 288.621 64.453C288.459 64.965 288.378 65.5746 288.378 66.2818ZM312.897 72.674H299.985V71.2486H302.969V67.674C302.394 67.3462 301.948 66.9337 301.632 66.4365C301.319 65.9355 301.164 65.3775 301.168 64.7624C301.168 64.0258 301.39 63.3757 301.836 62.8122C302.285 62.2449 302.908 61.8048 303.703 61.4917C304.499 61.1786 305.401 61.0221 306.411 61.0221C307.42 61.0221 308.324 61.1786 309.123 61.4917C309.923 61.8048 310.547 62.2449 310.996 62.8122C311.449 63.3757 311.676 64.0258 311.676 64.7624C311.676 65.3665 311.523 65.9153 311.217 66.4088C310.912 66.8987 310.479 67.3094 309.919 67.6409V71.2486H312.897V72.674ZM302.869 64.7624C302.869 65.2376 303.017 65.6556 303.311 66.0166C303.606 66.3738 304.02 66.6501 304.554 66.8453C305.092 67.0368 305.711 67.1326 306.411 67.1326C307.107 67.1326 307.724 67.035 308.261 66.8398C308.799 66.6446 309.217 66.3683 309.516 66.011C309.818 65.6538 309.969 65.2376 309.969 64.7624C309.969 64.2799 309.819 63.8619 309.521 63.5083C309.223 63.151 308.805 62.8785 308.267 62.6906C307.729 62.5028 307.11 62.4088 306.411 62.4088C305.707 62.4088 305.088 62.5028 304.554 62.6906C304.02 62.8785 303.606 63.151 303.311 63.5083C303.017 63.8619 302.869 64.2799 302.869 64.7624ZM308.162 71.2486V68.3094C307.613 68.4273 307.029 68.4862 306.411 68.4862C305.807 68.4862 305.232 68.4273 304.687 68.3094V71.2486H308.162Z" fill="#7280FF"/>
<g opacity="0.2">
<path d="M117 27L117 104" stroke="#9CA4AC" stroke-dasharray="2 1.5"/>
<path d="M0 109H335" stroke="#C6C8CE"/>
<path opacity="0.5" d="M0 92L335 92" stroke="#EAEBEE"/>
<path opacity="0.5" d="M0 73L335 73" stroke="#EAEBEE"/>
<path opacity="0.5" d="M0 54L335 54" stroke="#EAEBEE"/>
<path opacity="0.5" d="M0 35L335 35" stroke="#EAEBEE"/>
<path d="M6.54487 130H5.43437L8.5421 121.514H9.6526L12.7603 130H11.6498L10.8045 127.613H7.39017L6.54487 130ZM7.71752 126.685H10.4772L9.1305 122.881H9.0642L7.71752 126.685ZM13.6697 121.514H14.9377L17.7968 128.5H17.8963L20.7554 121.514H22.0233V130H21.0289V123.594H20.946L18.3106 130H17.3742L14.7388 123.586H14.6642V130H13.6697V121.514ZM29.1336 130.116C27.3435 130.116 26.1087 129.13 26.117 127.746C26.1087 126.652 26.8712 125.749 27.8408 125.591V125.55C26.9955 125.351 26.4402 124.572 26.4402 123.652C26.4402 122.351 27.5756 121.398 29.1336 121.398C30.675 121.398 31.8104 122.351 31.8187 123.652C31.8104 124.572 31.2468 125.351 30.4181 125.55V125.591C31.3794 125.749 32.1419 126.652 32.1502 127.746C32.1419 129.13 30.8988 130.116 29.1336 130.116ZM27.1695 127.688C27.1529 128.583 27.9071 129.188 29.1336 129.188C30.3435 129.188 31.0977 128.583 31.0977 127.688C31.0977 126.751 30.2689 126.064 29.1336 126.064C27.9899 126.064 27.1529 126.751 27.1695 127.688ZM27.4678 123.727C27.4678 124.588 28.1557 125.169 29.1336 125.169C30.0949 125.169 30.791 124.588 30.791 123.727C30.791 122.881 30.1198 122.309 29.1336 122.309C28.1225 122.309 27.4678 122.881 27.4678 123.727Z" fill="#878E9B"/>
<path d="M64.0269 130V121.514H66.9109C68.8999 121.514 69.8032 122.699 69.8032 124.207C69.8032 125.715 68.8999 126.917 66.9275 126.917H65.0794V130H64.0269ZM65.0794 125.981H66.8778C68.2286 125.981 68.759 125.218 68.759 124.207C68.759 123.196 68.2286 122.45 66.8695 122.45H65.0794V125.981ZM71.0408 121.514H72.3088L75.1679 128.5H75.2674L78.1265 121.514H79.3944V130H78.4V123.594H78.3171L75.6817 130H74.7453L72.1099 123.586H72.0353V130H71.0408V121.514ZM83.6621 130L83.6539 129.229L86.5461 126.18C87.5489 125.11 88.0295 124.539 88.0378 123.76C88.0295 122.881 87.3003 122.318 86.3472 122.318C85.3362 122.318 84.6981 122.956 84.6981 123.909H83.6953C83.687 122.409 84.8472 121.398 86.3804 121.398C87.9218 121.398 89.0157 122.434 89.024 123.76C89.0157 124.704 88.5765 125.442 87.0682 126.992L85.129 128.997V129.064H89.1732V130H83.6621Z" fill="#878E9B"/>
<path d="M121.255 130V121.514H124.139C126.128 121.514 127.031 122.699 127.031 124.207C127.031 125.715 126.128 126.917 124.155 126.917H122.307V130H121.255ZM122.307 125.981H124.105C125.456 125.981 125.987 125.218 125.987 124.207C125.987 123.196 125.456 122.45 124.097 122.45H122.307V125.981ZM128.268 121.514H129.536L132.396 128.5H132.495L135.354 121.514H136.622V130H135.628V123.594H135.545L132.909 130H131.973L129.338 123.586H129.263V130H128.268V121.514ZM141.068 130.116C139.602 130.099 137.977 129.229 137.977 126.08C137.977 123.08 139.212 121.398 141.201 121.398C142.693 121.398 143.737 122.318 143.952 123.644H142.908C142.718 122.898 142.146 122.334 141.201 122.334C139.809 122.334 138.972 123.528 138.972 125.575H139.079C139.568 124.862 140.347 124.448 141.259 124.448C142.767 124.448 144.027 125.616 144.027 127.257C144.027 128.856 142.858 130.133 141.068 130.116ZM139.121 127.282C139.121 128.276 139.933 129.188 141.068 129.188C142.171 129.188 142.999 128.326 143.008 127.265C142.999 126.229 142.204 125.376 141.102 125.376C139.983 125.376 139.129 126.279 139.121 127.282Z" fill="#878E9B"/>
<path d="M175.963 130V121.514H178.847C180.836 121.514 181.74 122.699 181.74 124.207C181.74 125.715 180.836 126.917 178.864 126.917H177.016V130H175.963ZM177.016 125.981H178.814C180.165 125.981 180.695 125.218 180.695 124.207C180.695 123.196 180.165 122.45 178.806 122.45H177.016V125.981ZM182.977 121.514H184.245L187.104 128.5H187.204L190.063 121.514H191.331V130H190.336V123.594H190.253L187.618 130H186.682L184.046 123.586H183.972V130H182.977V121.514ZM198.599 121.514V130H197.538V122.616H197.488L195.425 123.983V122.923L197.538 121.514H198.599ZM203.397 130.116C201.515 130.116 200.43 128.533 200.43 125.757C200.43 123.006 201.532 121.398 203.397 121.398C205.261 121.398 206.363 123.006 206.363 125.757C206.363 128.533 205.278 130.116 203.397 130.116ZM201.457 125.757C201.457 127.953 202.17 129.18 203.397 129.18C204.623 129.18 205.336 127.953 205.336 125.757C205.336 123.561 204.615 122.318 203.397 122.318C202.178 122.318 201.457 123.561 201.457 125.757Z" fill="#878E9B"/>
<path d="M238.651 130H237.541L240.648 121.514H241.759L244.867 130H243.756L242.911 127.613H239.496L238.651 130ZM239.824 126.685H242.584L241.237 122.881H241.171L239.824 126.685ZM245.776 121.514H247.044L249.903 128.5H250.003L252.862 121.514H254.13V130H253.135V123.594H253.052L250.417 130H249.48L246.845 123.586H246.771V130H245.776V121.514ZM261.397 121.514V130H260.337V122.616H260.287L258.223 123.983V122.923L260.337 121.514H261.397ZM263.419 130L263.411 129.229L266.303 126.18C267.306 125.11 267.786 124.539 267.795 123.76C267.786 122.881 267.057 122.318 266.104 122.318C265.093 122.318 264.455 122.956 264.455 123.909H263.452C263.444 122.409 264.604 121.398 266.137 121.398C267.679 121.398 268.773 122.434 268.781 123.76C268.773 124.704 268.333 125.442 266.825 126.992L264.886 128.997V129.064H268.93V130H263.419Z" fill="#878E9B"/>
<path d="M301.662 130H300.552L303.659 121.514H304.77L307.878 130H306.767L305.922 127.613H302.507L301.662 130ZM302.835 126.685H305.594L304.248 122.881H304.181L302.835 126.685ZM308.787 121.514H310.055L312.914 128.5H313.013L315.873 121.514H317.141V130H316.146V123.594H316.063L313.428 130H312.491L309.856 123.586H309.781V130H308.787V121.514ZM321.408 130L321.4 129.229L324.292 126.18C325.295 125.11 325.776 124.539 325.784 123.76C325.776 122.881 325.046 122.318 324.093 122.318C323.082 122.318 322.444 122.956 322.444 123.909H321.441C321.433 122.409 322.593 121.398 324.126 121.398C325.668 121.398 326.762 122.434 326.77 123.76C326.762 124.704 326.323 125.442 324.814 126.992L322.875 128.997V129.064H326.919V130H321.408Z" fill="#878E9B"/>
<path d="M22 103.565C23.6569 103.565 25 104.909 25 106.565L25 109L11 109L11 106.565C11 104.909 12.3431 103.565 14 103.565L22 103.565Z" fill="#D0DFFF"/>
<path d="M42 98.8096C43.6569 98.8096 45 100.153 45 101.81L45 109L31 109L31 101.81C31 100.153 32.3431 98.8096 34 98.8096L42 98.8096Z" fill="#D0DFFF"/>
<path d="M62 89.978C63.6569 89.978 65 91.3212 65 92.978L65 109L51 109L51 92.978C51 91.3212 52.3431 89.978 54 89.978L62 89.978Z" fill="#BDD1FB"/>
<path d="M82 66.8804C83.6569 66.8804 85 68.2235 85 69.8804L85 109L71 109L71 69.8804C71 68.2235 72.3431 66.8804 74 66.8804L82 66.8804Z" fill="#A2B6FF"/>
<path d="M102 76.3911C103.657 76.3911 105 77.7343 105 79.3911L105 109L91 109L91 79.3911C91 77.7343 92.3431 76.3911 94 76.3911L102 76.3911Z" fill="#BDD1FB"/>
<path d="M122 37C123.657 37 125 38.3431 125 40L125 109L111 109L111 40C111 38.3431 112.343 37 114 37L122 37Z" fill="#7280FF"/>
<g opacity="0.5">
<path d="M142 89.978C143.657 89.978 145 91.3212 145 92.978L145 109L131 109L131 92.978C131 91.3212 132.343 89.978 134 89.978L142 89.978Z" fill="#EAEBEE"/>
<path d="M162 72.3149C163.657 72.3149 165 73.6581 165 75.3149L165 109L151 109L151 75.3149C151 73.6581 152.343 72.3149 154 72.3149L162 72.3149Z" fill="#C6C8CE"/>
<path d="M182 51.9346C183.657 51.9346 185 53.2777 185 54.9346L185 109L171 109L171 54.9346C171 53.2777 172.343 51.9346 174 51.9346L182 51.9346Z" fill="#515E6F"/>
<path d="M202 61.4458C203.657 61.4458 205 62.7889 205 64.4458L205 109L191 109L191 64.4458C191 62.7889 192.343 61.4458 194 61.4458L202 61.4458Z" fill="#878E9B"/>
<path d="M222 82.5054C223.657 82.5054 225 83.8485 225 85.5054L225 109L211 109L211 85.5054C211 83.8485 212.343 82.5054 214 82.5054L222 82.5054Z" fill="#C6C8CE"/>
<path d="M242 82.5054C243.657 82.5054 245 83.8485 245 85.5054L245 109L231 109L231 85.5054C231 83.8485 232.343 82.5054 234 82.5054L242 82.5054Z" fill="#C6C8CE"/>
<path d="M262 91.3369C263.657 91.3369 265 92.6801 265 94.3369L265 109L251 109L251 94.3369C251 92.6801 252.343 91.3369 254 91.3369L262 91.3369Z" fill="#EAEBEE"/>
<path d="M282 82.5054C283.657 82.5054 285 83.8485 285 85.5054L285 109L271 109L271 85.5054C271 83.8485 272.343 82.5054 274 82.5054L282 82.5054Z" fill="#C6C8CE"/>
<path d="M302 61.4458C303.657 61.4458 305 62.7889 305 64.4458L305 109L291 109L291 64.4458C291 62.7889 292.343 61.4458 294 61.4458L302 61.4458Z" fill="#878E9B"/>
<path d="M322 51.9346C323.657 51.9346 325 53.2777 325 54.9346L325 109L311 109L311 54.9346C311 53.2777 312.343 51.9346 314 51.9346L322 51.9346Z" fill="#515E6F"/>
</g>
<rect x="83" width="67" height="23" rx="11.5" fill="#F7F8F9"/>
<circle cx="94" cy="11.5" r="3" fill="#7280FF"/>
<path d="M110.492 17.043H109.238V11.6172H108.113V16.5273H106.883V6.63672H108.113V10.5391H109.238V6.44922H110.492V17.043ZM101.68 7.59766H105.84V14.3125H101.68V7.59766ZM104.621 13.2812V8.62891H102.898V13.2812H104.621ZM121.151 13.4922H116.932V17.043H115.643V13.4922H111.471V12.4141H121.151V13.4922ZM112.49 9.20312C112.49 8.72656 112.649 8.30859 112.965 7.94922C113.281 7.58984 113.727 7.3125 114.301 7.11719C114.875 6.92188 115.537 6.82422 116.287 6.82422C117.037 6.82422 117.699 6.92188 118.274 7.11719C118.852 7.3125 119.301 7.58984 119.621 7.94922C119.946 8.30859 120.108 8.72656 120.108 9.20312C120.108 9.67578 119.946 10.0898 119.621 10.4453C119.301 10.7969 118.852 11.0684 118.274 11.2598C117.696 11.4512 117.033 11.5469 116.287 11.5469C115.541 11.5469 114.879 11.4512 114.301 11.2598C113.727 11.0684 113.281 10.7969 112.965 10.4453C112.649 10.0898 112.49 9.67578 112.49 9.20312ZM113.826 9.20312C113.826 9.47656 113.926 9.71289 114.125 9.91211C114.328 10.1074 114.615 10.2578 114.987 10.3633C115.358 10.4648 115.791 10.5156 116.287 10.5156C116.787 10.5156 117.223 10.4648 117.594 10.3633C117.965 10.2578 118.252 10.1074 118.455 9.91211C118.658 9.71289 118.76 9.47656 118.76 9.20312C118.76 8.92969 118.658 8.69336 118.455 8.49414C118.252 8.29492 117.965 8.14258 117.594 8.03711C117.223 7.93164 116.787 7.87891 116.287 7.87891C115.791 7.87891 115.358 7.93164 114.987 8.03711C114.615 8.14258 114.328 8.29492 114.125 8.49414C113.926 8.69336 113.826 8.92969 113.826 9.20312ZM131.27 13.6328H121.614V12.6016H125.786V11.9277C124.864 11.873 124.155 11.709 123.659 11.4355C123.163 11.1621 122.915 10.7891 122.915 10.3164C122.915 9.79688 123.219 9.40039 123.829 9.12695C124.438 8.84961 125.305 8.71094 126.43 8.71094C127.555 8.71094 128.422 8.84961 129.032 9.12695C129.645 9.40039 129.954 9.79688 129.958 10.3164C129.954 10.7891 129.704 11.1621 129.208 11.4355C128.715 11.709 128.008 11.873 127.086 11.9277V12.6016H131.27V13.6328ZM122.094 7.36328H125.786V6.37891H127.086V7.36328H130.743V8.34766H122.094V7.36328ZM122.809 14.1836H124.11V15.8008H130.18V16.832H122.809V14.1836ZM124.25 10.3164C124.247 10.5508 124.424 10.7246 124.784 10.8379C125.143 10.9512 125.692 11.0078 126.43 11.0078C127.168 11.0078 127.719 10.9512 128.083 10.8379C128.446 10.7246 128.625 10.5508 128.622 10.3164C128.625 9.85547 127.895 9.625 126.43 9.625C124.965 9.625 124.239 9.85547 124.25 10.3164ZM135.53 8.18359C135.526 8.60938 135.62 9.01953 135.811 9.41406C136.003 9.80469 136.288 10.1523 136.667 10.457C137.046 10.7578 137.507 10.9883 138.05 11.1484L137.428 12.1562C136.835 11.9766 136.323 11.709 135.893 11.3535C135.464 10.998 135.128 10.5762 134.885 10.0879C134.647 10.6309 134.303 11.0996 133.854 11.4941C133.409 11.8887 132.874 12.1836 132.249 12.3789L131.593 11.3477C132.147 11.1797 132.62 10.9355 133.01 10.6152C133.405 10.291 133.704 9.92188 133.907 9.50781C134.11 9.09375 134.214 8.66016 134.218 8.20703V8.13672H131.968V7.08203H137.721V8.13672H135.53V8.18359ZM133.233 12.7188H134.534V13.8086H138.8V12.7188H140.1V16.9141H133.233V12.7188ZM138.8 15.8594V14.8164H134.534V15.8594H138.8ZM138.8 6.44922H140.1V8.76953H141.577V9.84766H140.1V12.2734H138.8V6.44922Z" fill="#424250"/>
</g>
</svg>
