<svg width="80" height="21" viewBox="0 0 80 21" fill="none" xmlns="http://www.w3.org/2000/svg">
<path d="M74.1069 0C73.033 0 72.2391 0.832015 72.2391 1.91549C72.2391 2.99593 73.0047 3.83099 74.1069 3.83099C75.2032 3.83099 76 3.00197 76 1.91549C76 0.826075 75.175 0 74.1069 0Z" fill="white"/>
<path d="M75.6028 6.34841H72.6363V20.6907H75.6028V6.34841Z" fill="white"/>
<path d="M60.0382 0.238975H57.0717V20.6653H60.0382V17.0537L62.3667 14.5276L66.7988 20.6653H70.349L64.2733 12.4433L69.871 6.3483H66.2825L60.0382 13.2563V0.238975Z" fill="white"/>
<path d="M52.4336 7.1754C53.5103 7.90981 54.2058 8.96018 54.2876 10.2037L54.4685 10.5646H51.3946L51.3737 10.3059C51.3375 9.85709 51.0212 9.43367 50.436 9.1113C49.8534 8.79039 49.0392 8.59289 48.1078 8.59289C47.1747 8.59289 46.39 8.78469 45.8493 9.08367C45.3046 9.38487 45.0512 9.76475 45.0512 10.1399C45.0512 10.387 45.0967 10.5925 45.1975 10.7724C45.2984 10.9524 45.4662 11.1273 45.7433 11.2942C46.3092 11.6353 47.2865 11.9181 48.9155 12.1453C50.94 12.4247 52.3588 12.9084 53.2749 13.6274C54.2098 14.3612 54.5956 15.3193 54.5956 16.463C54.5956 17.9076 53.8518 19.053 52.6908 19.8259C51.5366 20.5943 49.9669 21 48.2683 21C44.621 21 42.1446 19.1658 41.967 16.5524L41.9466 16.2521H44.8535L44.8854 16.4971C44.9998 17.3765 46.0247 18.4151 48.3388 18.4151C49.3301 18.4151 50.183 18.2053 50.7776 17.8657C51.3728 17.5258 51.6743 17.081 51.6743 16.6036C51.6743 16.3661 51.6211 16.1683 51.5086 15.994C51.3945 15.8172 51.2068 15.6453 50.9075 15.4821C50.2996 15.1506 49.2882 14.8847 47.6952 14.6687L47.6944 14.6686C45.8592 14.4147 44.4705 13.9795 43.5369 13.2708C42.5837 12.5473 42.1298 11.5579 42.1298 10.2777C42.1298 8.9652 42.8152 7.88667 43.9102 7.14724C44.9998 6.41141 46.4995 6.00515 48.1754 6.00515C49.8544 6.00515 51.3423 6.43114 52.4336 7.1754Z" fill="white"/>
<path fill-rule="evenodd" clip-rule="evenodd" d="M33.5235 6.01064C29.6591 6.01064 26.8471 8.91004 26.5659 12.8511L26.5399 12.8252V13.5038C26.5399 17.7748 29.4479 20.9999 33.5207 20.9999C36.6804 20.9999 39.2081 19.2304 39.9739 16.7134L40.0844 16.3504H37.0684L36.9949 16.5199C36.5617 17.5192 35.2631 18.3474 33.5207 18.3474C31.4116 18.3474 29.8988 16.874 29.5505 14.7977H40.3941L40.4284 14.5559C40.4791 14.1986 40.4791 13.8222 40.4791 13.515V13.5067C40.4791 9.23728 37.6006 6.01064 33.5235 6.01064ZM37.5173 12.2156H29.5527C29.8982 10.1204 31.3918 8.66589 33.5235 8.66589C35.6594 8.66589 37.1533 10.0992 37.5173 12.2156Z" fill="white"/>
<path d="M7.0943 6.3485H4L8.90584 20.6655H11.7389L15.0381 10.7407L18.3586 20.6655H21.1913L26.0971 6.3485H23.1183L19.7991 16.4733L16.5012 6.3485H13.6635L10.3908 16.4002L7.0943 6.3485Z" fill="white"/>
</svg>
