<svg width="16" height="16" viewBox="0 0 16 16" fill="none" xmlns="http://www.w3.org/2000/svg">
<path d="M12 10.72C11.4933 10.72 11.04 10.92 10.6933 11.2334L5.94 8.46671C5.97333 8.31337 6 8.16004 6 8.00004C6 7.84004 5.97333 7.68671 5.94 7.53337L10.64 4.79337C11 5.12671 11.4733 5.33337 12 5.33337C13.1067 5.33337 14 4.44004 14 3.33337C14 2.22671 13.1067 1.33337 12 1.33337C10.8933 1.33337 10 2.22671 10 3.33337C10 3.49337 10.0267 3.64671 10.06 3.80004L5.36 6.54004C5 6.20671 4.52667 6.00004 4 6.00004C2.89333 6.00004 2 6.89337 2 8.00004C2 9.10671 2.89333 10 4 10C4.52667 10 5 9.79337 5.36 9.46004L10.1067 12.2334C10.0733 12.3734 10.0533 12.52 10.0533 12.6667C10.0533 13.74 10.9267 14.6134 12 14.6134C13.0733 14.6134 13.9467 13.74 13.9467 12.6667C13.9467 11.5934 13.0733 10.72 12 10.72Z" fill="white"/>
</svg>
